PathFileType	4	(X/Y/Z)	C:\Users\°ÂÌØÂü\Desktop\20210112\bx_n_0_1801-Unnamed.trc
DataRate	CameraRate	NumFrames	NumMarkers	Units	OrigDataRate	OrigDataStartFrame	OrigNumFrames
50.00	50.00	       5	0	mm	50.00	50	       397
Frame#	Time	
		

50	0.980	-708.36499	-66.93658	1543.97437	-623.52716	241.12752	1069.93445	-700.51337	290.12155	875.62976	-697.20276	77.77307	574.49799	-605.05353	222.29701	800.46698	-705.08978	270.60440	746.33905	-738.08722	252.25017	641.22278	-717.64105	72.31982	215.89940	-669.34766	18.82823	521.57220	-729.20563	246.00085	577.35248	-674.55139	204.30736	537.87872	-766.14801	255.90659	501.56070				-649.21802	-68.15192	161.20056	-711.64825	150.88844	216.86339	-764.08911	227.60912	206.54506	-609.61676	-76.59631	156.54231	-882.44672	296.15918	144.79175	-673.70642	54.28137	158.12923	-599.44330	24.73355	167.96307	-553.40308	-35.08273	164.91522	-589.82147	212.79556	175.53542	-654.96027	293.42578	155.18910	-620.68457	304.49930	157.75937	-555.10626	250.27232	167.65787	-528.27087	304.22754	146.42125	-669.24341	122.69740	1850.83789	-725.21753	292.81238	1535.92383	-517.79675	-72.80491	143.10483	-792.12335	39.76752	174.38333	-794.44885	178.75485	184.63034	-821.85785	104.56667	1062.67297	-761.45313	-40.54584	488.32129	-757.56927	-18.45492	207.61581	-875.95648	-78.79716	141.44162	-615.43414	105.58461	1356.07556	-691.32550	143.87090	581.05786	-674.74121	167.01730	158.93459	-690.25250	-71.00259	874.98297	-628.00574	-5.49599	1059.38049	-609.98114	-4.51408	810.58386	-720.53925	-28.90842	569.73309	-704.47473	-56.66339	759.25690	-717.55200	-31.08995	617.16034	
51	1.000	-708.24701	-66.89371	1543.90173	-623.39490	241.08109	1069.88745	-699.71753	290.21274	875.44727	-697.18555	78.12051	574.43945	-604.81189	222.01062	800.50806	-704.32190	270.23929	746.08209	-737.64166	252.50912	641.57874	-717.82098	72.59461	215.77574	-669.13403	18.80895	521.44794	-728.83429	245.60341	576.67261	-674.27692	204.19754	537.80652	-766.00604	256.01401	501.85114				-649.19287	-68.15509	161.20714	-711.64825	150.88844	216.86339	-764.15778	227.61055	206.38107	-609.64178	-76.61538	156.24644	-882.52942	296.33389	144.80528	-673.52509	54.25332	158.11320	-599.45636	24.71872	167.87804	-553.45081	-35.15300	164.82808	-589.46100	212.90321	175.52708	-654.97241	293.58713	155.00334	-620.67090	304.56552	157.50450	-555.08191	249.97714	167.33118	-528.21881	304.00604	146.56398	-669.04602	122.64981	1850.84192	-725.31976	292.87155	1535.98523	-517.79840	-72.79103	143.29643	-791.91583	39.76843	174.23169	-794.31433	178.77988	184.70384	-821.46063	104.98837	1062.32483	-761.58661	-40.35286	488.31943	-757.53510	-18.37679	207.80602	-875.95648	-78.79716	141.44162	-615.30219	105.74032	1356.10999	-691.23444	143.97810	580.98749	-674.55273	167.18004	158.75377	-690.37976	-70.90804	875.26868	-627.81805	-5.34421	1059.40417	-609.94696	-4.39883	810.74335	-720.47327	-28.93225	569.83423	-704.21912	-56.83531	759.44373	-717.24725	-30.74159	616.81714	
52	1.020	-708.11890	-66.86101	1543.97974	-623.18329	241.27528	1069.67273	-699.41650	290.36957	875.51459	-697.18915	78.18954	574.39441	-604.31207	221.89049	800.30377	-703.70850	270.48676	746.39673	-737.10699	252.59166	641.81372	-717.57605	72.16917	215.99803	-669.04327	18.99215	521.30499	-728.67999	245.61635	576.79932	-673.99823	204.50470	537.74750	-765.75415	256.12738	501.81262				-649.19580	-68.21548	161.15491	-711.68262	150.82590	216.78743	-764.06195	227.46275	206.36198	-609.80817	-76.50827	156.26047	-882.56085	296.26627	144.77975	-673.70642	54.28137	158.12923	-599.29791	24.74922	167.85484	-553.43451	-35.18330	164.90501	-589.37555	212.67587	175.48332	-655.01465	293.57614	155.28468	-620.74628	304.97961	157.11615	-554.80200	249.80830	167.16624	-528.21930	304.07999	146.53195	-669.00421	122.80856	1850.96448	-725.35638	292.98398	1536.13611	-517.72870	-72.82697	143.22414	-792.06219	39.90604	174.34943	-794.31433	178.77988	184.70384	-821.34967	105.29072	1062.46191	-761.54736	-40.39637	488.51236	-757.45569	-18.28448	207.81651	-875.99792	-78.69180	141.55168	-614.89270	106.24569	1356.36121	-691.10883	144.18706	580.90802	-674.16864	166.99823	158.83636	-690.05463	-70.87514	875.23352	-627.83423	-5.37495	1059.58813	-609.90686	-4.38785	810.66693	-720.40759	-28.66787	569.82031	-704.28369	-56.59628	759.40717	-717.13470	-31.06495	617.09009	
53	1.040	-708.04962	-66.77673	1543.85718	-622.55072	241.32138	1069.80811	-698.90533	290.82181	875.57300	-696.56665	78.22806	574.44348	-604.11133	221.86420	800.13928	-703.51672	270.61288	746.38153	-736.65045	252.35620	641.69519	-717.57605	72.16917	215.99803	-668.77661	18.84391	521.43713	-728.32678	245.88010	577.14099	-673.91425	204.46445	537.70203	-765.56726	256.23663	501.95059				-649.11768	-68.23151	161.20648	-711.71539	150.70775	216.63396	-764.07635	227.63431	206.27657	-609.86932	-76.93806	156.15300	-882.46729	296.20953	144.75272	-673.36389	54.19192	158.15454	-599.28595	24.88361	167.81406	-553.40021	-35.01781	164.77110	-589.18311	212.73325	175.50075	-655.05005	293.67880	154.91626	-620.71576	305.27167	156.83276	-554.85651	249.80231	167.09268	-528.08765	303.84189	146.50397	-668.91406	122.87319	1850.89954	-725.20569	293.11722	1535.90784	-517.88324	-72.85957	143.05811	-792.06421	40.02485	174.25363	-794.30762	178.90913	184.82671	-821.03888	105.36464	1062.33533	-761.63159	-40.33504	488.49094	-757.57611	-18.37900	207.75600	-876.00275	-78.74174	141.50209	-614.95593	106.32195	1356.27649	-690.89178	144.06161	581.24139	-674.02930	167.08836	158.55681	-690.06696	-70.86170	875.32294	-627.71234	-5.45676	1059.64111	-609.90125	-4.56980	810.62927	-720.29913	-28.69657	569.75732	-704.14050	-56.63870	759.31818	-716.35730	-31.09187	617.06665	
54	1.060	-707.91504	-66.58551	1543.91345	-622.26697	241.48080	1069.81665	-698.59131	290.79022	875.61243	-696.40552	78.28408	574.19287	-604.00702	221.61897	800.32843	-703.32660	270.43695	746.12439	-736.27283	252.64850	641.78870	-717.83179	72.67527	215.71794	-668.82971	18.86802	521.18103	-728.25177	245.99799	577.25031	-673.68396	204.43884	537.34546	-765.56726	256.23663	501.95059				-649.20300	-68.18290	161.20752	-711.43597	150.59210	216.78300	-763.89417	227.56201	206.36163	-609.70001	-76.89585	155.93636	-882.44165	296.28186	144.84575	-673.53241	54.29529	158.11311	-599.31610	24.67308	167.89902	-553.42413	-34.94050	164.87289	-589.36163	212.80284	175.37779	-655.05005	293.67880	154.91626	-620.75970	305.23581	156.93568	-554.95807	249.78923	166.88222	-528.29987	304.19962	146.43954	-669.00092	123.00830	1850.95972	-725.13715	293.17050	1535.92712	-517.67731	-72.80883	143.21629	-792.01764	39.93871	174.40724	-794.23145	178.83084	184.69377	-820.80096	105.49972	1062.36035	-761.56104	-40.29008	488.40021	-757.71509	-18.50648	207.83313	-875.99792	-78.69180	141.55168	-614.81976	106.25027	1356.33313	-690.89868	144.28407	580.65955	-674.21350	167.27112	158.77881	-689.77924	-70.77366	875.44135	-627.27161	-5.41989	1059.66028	-609.47906	-4.67122	810.31482	-719.92303	-28.54726	569.70087	-704.07269	-56.52775	759.46112	-716.18176	-31.29167	617.10791	
